<mxfile host="app.diagrams.net" modified="2021-04-06T14:00:01.528Z" agent="5.0 (Macintosh; Intel Mac OS X 11_1_0) AppleWebKit/537.36 (KHTML, like Gecko) Chrome/89.0.4389.114 Safari/537.36" etag="vGB2-lj9Om7Jaf91tTLx" version="14.5.7" type="github">
  <diagram id="CNdbmbOICS1B68G9m7Yh" name="Page-1">
    <mxGraphModel dx="2125" dy="808" grid="1" gridSize="10" guides="1" tooltips="1" connect="1" arrows="1" fold="1" page="1" pageScale="1" pageWidth="827" pageHeight="1169" math="0" shadow="0">
      <root>
        <mxCell id="0" />
        <mxCell id="1" parent="0" />
        <mxCell id="zhOrGcuJA-k4JC2MRClU-43" style="edgeStyle=orthogonalEdgeStyle;rounded=0;orthogonalLoop=1;jettySize=auto;html=1;entryX=0.5;entryY=0;entryDx=0;entryDy=0;exitX=0.5;exitY=1;exitDx=0;exitDy=0;" edge="1" parent="1" source="zhOrGcuJA-k4JC2MRClU-1" target="zhOrGcuJA-k4JC2MRClU-14">
          <mxGeometry relative="1" as="geometry" />
        </mxCell>
        <mxCell id="zhOrGcuJA-k4JC2MRClU-65" value="端上直接调用接口加积分" style="edgeLabel;html=1;align=center;verticalAlign=middle;resizable=0;points=[];" vertex="1" connectable="0" parent="zhOrGcuJA-k4JC2MRClU-43">
          <mxGeometry x="0.9225" y="-1" relative="1" as="geometry">
            <mxPoint as="offset" />
          </mxGeometry>
        </mxCell>
        <mxCell id="zhOrGcuJA-k4JC2MRClU-46" style="edgeStyle=orthogonalEdgeStyle;rounded=0;orthogonalLoop=1;jettySize=auto;html=1;entryX=0.5;entryY=0;entryDx=0;entryDy=0;exitX=0.5;exitY=1;exitDx=0;exitDy=0;" edge="1" parent="1" source="zhOrGcuJA-k4JC2MRClU-1" target="zhOrGcuJA-k4JC2MRClU-21">
          <mxGeometry relative="1" as="geometry" />
        </mxCell>
        <mxCell id="zhOrGcuJA-k4JC2MRClU-47" value="答题添加积分" style="edgeLabel;html=1;align=center;verticalAlign=middle;resizable=0;points=[];" vertex="1" connectable="0" parent="zhOrGcuJA-k4JC2MRClU-46">
          <mxGeometry x="0.8929" relative="1" as="geometry">
            <mxPoint as="offset" />
          </mxGeometry>
        </mxCell>
        <mxCell id="zhOrGcuJA-k4JC2MRClU-49" style="edgeStyle=orthogonalEdgeStyle;rounded=0;orthogonalLoop=1;jettySize=auto;html=1;" edge="1" parent="1" target="zhOrGcuJA-k4JC2MRClU-48">
          <mxGeometry relative="1" as="geometry">
            <mxPoint x="414" y="200" as="sourcePoint" />
            <Array as="points">
              <mxPoint x="414" y="270" />
              <mxPoint x="260" y="270" />
            </Array>
          </mxGeometry>
        </mxCell>
        <mxCell id="zhOrGcuJA-k4JC2MRClU-51" value="学习报告" style="edgeLabel;html=1;align=center;verticalAlign=middle;resizable=0;points=[];" vertex="1" connectable="0" parent="zhOrGcuJA-k4JC2MRClU-49">
          <mxGeometry x="0.619" y="-1" relative="1" as="geometry">
            <mxPoint as="offset" />
          </mxGeometry>
        </mxCell>
        <mxCell id="zhOrGcuJA-k4JC2MRClU-54" style="edgeStyle=orthogonalEdgeStyle;rounded=0;orthogonalLoop=1;jettySize=auto;html=1;exitX=0.5;exitY=1;exitDx=0;exitDy=0;" edge="1" parent="1" source="zhOrGcuJA-k4JC2MRClU-1" target="zhOrGcuJA-k4JC2MRClU-2">
          <mxGeometry relative="1" as="geometry" />
        </mxCell>
        <mxCell id="zhOrGcuJA-k4JC2MRClU-66" value="rmq用户行为" style="edgeLabel;html=1;align=center;verticalAlign=middle;resizable=0;points=[];" vertex="1" connectable="0" parent="zhOrGcuJA-k4JC2MRClU-54">
          <mxGeometry x="0.8347" y="2" relative="1" as="geometry">
            <mxPoint as="offset" />
          </mxGeometry>
        </mxCell>
        <mxCell id="zhOrGcuJA-k4JC2MRClU-63" style="edgeStyle=orthogonalEdgeStyle;rounded=0;orthogonalLoop=1;jettySize=auto;html=1;exitX=0.5;exitY=1;exitDx=0;exitDy=0;" edge="1" parent="1" source="zhOrGcuJA-k4JC2MRClU-1" target="zhOrGcuJA-k4JC2MRClU-61">
          <mxGeometry relative="1" as="geometry" />
        </mxCell>
        <mxCell id="zhOrGcuJA-k4JC2MRClU-64" value="答题加积分" style="edgeLabel;html=1;align=center;verticalAlign=middle;resizable=0;points=[];" vertex="1" connectable="0" parent="zhOrGcuJA-k4JC2MRClU-63">
          <mxGeometry x="0.9115" relative="1" as="geometry">
            <mxPoint as="offset" />
          </mxGeometry>
        </mxCell>
        <mxCell id="zhOrGcuJA-k4JC2MRClU-80" style="edgeStyle=orthogonalEdgeStyle;rounded=0;orthogonalLoop=1;jettySize=auto;html=1;entryX=0.5;entryY=0;entryDx=0;entryDy=0;" edge="1" parent="1" source="zhOrGcuJA-k4JC2MRClU-1" target="zhOrGcuJA-k4JC2MRClU-78">
          <mxGeometry relative="1" as="geometry" />
        </mxCell>
        <mxCell id="zhOrGcuJA-k4JC2MRClU-81" style="edgeStyle=orthogonalEdgeStyle;rounded=0;orthogonalLoop=1;jettySize=auto;html=1;" edge="1" parent="1" target="zhOrGcuJA-k4JC2MRClU-79">
          <mxGeometry relative="1" as="geometry">
            <mxPoint x="414" y="200" as="sourcePoint" />
            <Array as="points">
              <mxPoint x="414" y="270" />
              <mxPoint x="1104" y="270" />
            </Array>
          </mxGeometry>
        </mxCell>
        <mxCell id="zhOrGcuJA-k4JC2MRClU-1" value="user-inclas.Api" style="rounded=0;whiteSpace=wrap;html=1;fillColor=#fa6800;strokeColor=#C73500;fontColor=#ffffff;" vertex="1" parent="1">
          <mxGeometry x="354" y="140" width="120" height="60" as="geometry" />
        </mxCell>
        <mxCell id="zhOrGcuJA-k4JC2MRClU-57" style="rounded=0;orthogonalLoop=1;jettySize=auto;html=1;" edge="1" parent="1" source="zhOrGcuJA-k4JC2MRClU-2" target="zhOrGcuJA-k4JC2MRClU-56">
          <mxGeometry relative="1" as="geometry" />
        </mxCell>
        <mxCell id="zhOrGcuJA-k4JC2MRClU-86" value="统计用户完到课" style="edgeLabel;html=1;align=center;verticalAlign=middle;resizable=0;points=[];" vertex="1" connectable="0" parent="zhOrGcuJA-k4JC2MRClU-57">
          <mxGeometry x="0.7105" y="1" relative="1" as="geometry">
            <mxPoint as="offset" />
          </mxGeometry>
        </mxCell>
        <mxCell id="zhOrGcuJA-k4JC2MRClU-59" style="rounded=0;orthogonalLoop=1;jettySize=auto;html=1;entryX=0.5;entryY=0;entryDx=0;entryDy=0;" edge="1" parent="1" source="zhOrGcuJA-k4JC2MRClU-2" target="zhOrGcuJA-k4JC2MRClU-53">
          <mxGeometry relative="1" as="geometry">
            <mxPoint x="180" y="651" as="targetPoint" />
          </mxGeometry>
        </mxCell>
        <mxCell id="zhOrGcuJA-k4JC2MRClU-82" value="任务记录" style="edgeLabel;html=1;align=center;verticalAlign=middle;resizable=0;points=[];" vertex="1" connectable="0" parent="zhOrGcuJA-k4JC2MRClU-59">
          <mxGeometry x="-0.7321" y="1" relative="1" as="geometry">
            <mxPoint as="offset" />
          </mxGeometry>
        </mxCell>
        <mxCell id="zhOrGcuJA-k4JC2MRClU-2" value="user-inclass.userAction" style="rounded=0;whiteSpace=wrap;html=1;fillColor=#fa6800;strokeColor=#C73500;fontColor=#ffffff;" vertex="1" parent="1">
          <mxGeometry x="-70" y="340" width="120" height="60" as="geometry" />
        </mxCell>
        <mxCell id="zhOrGcuJA-k4JC2MRClU-3" value="" style="shape=singleArrow;direction=south;whiteSpace=wrap;html=1;" vertex="1" parent="1">
          <mxGeometry x="384" y="30" width="60" height="100" as="geometry" />
        </mxCell>
        <mxCell id="zhOrGcuJA-k4JC2MRClU-4" value="kid-chinese&lt;br&gt;（废弃）" style="rounded=1;whiteSpace=wrap;html=1;dashed=1;" vertex="1" parent="1">
          <mxGeometry x="471" y="469" width="120" height="60" as="geometry" />
        </mxCell>
        <mxCell id="zhOrGcuJA-k4JC2MRClU-5" value="" style="shape=curlyBracket;whiteSpace=wrap;html=1;rounded=1;fillColor=#b1ddf0;strokeColor=#10739e;" vertex="1" parent="1">
          <mxGeometry x="593" y="473.5" width="14" height="51" as="geometry" />
        </mxCell>
        <mxCell id="zhOrGcuJA-k4JC2MRClU-7" value="* getModuleInfo中，查询学生学习的汉字" style="text;html=1;align=left;verticalAlign=middle;resizable=0;points=[];autosize=1;" vertex="1" parent="1">
          <mxGeometry x="607" y="474.5" width="230" height="20" as="geometry" />
        </mxCell>
        <mxCell id="zhOrGcuJA-k4JC2MRClU-8" value="* 语文学习报告" style="text;html=1;align=left;verticalAlign=middle;resizable=0;points=[];autosize=1;" vertex="1" parent="1">
          <mxGeometry x="607" y="504.5" width="100" height="20" as="geometry" />
        </mxCell>
        <mxCell id="zhOrGcuJA-k4JC2MRClU-10" value="kid-media&lt;br&gt;（有user-report替换成yy-resource）" style="rounded=1;whiteSpace=wrap;html=1;dashed=1;" vertex="1" parent="1">
          <mxGeometry x="471" y="579" width="120" height="60" as="geometry" />
        </mxCell>
        <mxCell id="zhOrGcuJA-k4JC2MRClU-14" value="kidintegralinner&lt;br&gt;（加积分收敛到计算引擎）" style="rounded=1;whiteSpace=wrap;html=1;fillColor=#fa6800;strokeColor=#C73500;fontColor=#ffffff;dashed=1;" vertex="1" parent="1">
          <mxGeometry x="-520" y="340" width="120" height="60" as="geometry" />
        </mxCell>
        <mxCell id="zhOrGcuJA-k4JC2MRClU-15" value="* 上传语文答题录音" style="text;html=1;align=left;verticalAlign=middle;resizable=0;points=[];autosize=1;" vertex="1" parent="1">
          <mxGeometry x="597" y="599" width="120" height="20" as="geometry" />
        </mxCell>
        <mxCell id="zhOrGcuJA-k4JC2MRClU-30" style="edgeStyle=orthogonalEdgeStyle;rounded=0;orthogonalLoop=1;jettySize=auto;html=1;" edge="1" parent="1" source="zhOrGcuJA-k4JC2MRClU-21" target="zhOrGcuJA-k4JC2MRClU-28">
          <mxGeometry relative="1" as="geometry" />
        </mxCell>
        <mxCell id="zhOrGcuJA-k4JC2MRClU-21" value="yaya-calc" style="rounded=1;whiteSpace=wrap;html=1;fillColor=#fa6800;strokeColor=#C73500;fontColor=#ffffff;" vertex="1" parent="1">
          <mxGeometry x="-230" y="340" width="120" height="60" as="geometry" />
        </mxCell>
        <mxCell id="zhOrGcuJA-k4JC2MRClU-22" value="yycourse" style="rounded=1;whiteSpace=wrap;html=1;" vertex="1" parent="1">
          <mxGeometry x="471" y="369" width="120" height="60" as="geometry" />
        </mxCell>
        <mxCell id="zhOrGcuJA-k4JC2MRClU-24" value="wxserver" style="rounded=1;whiteSpace=wrap;html=1;fillColor=#ffe6cc;strokeColor=#d79b00;dashed=1;" vertex="1" parent="1">
          <mxGeometry x="860" y="349.5" width="120" height="60" as="geometry" />
        </mxCell>
        <mxCell id="zhOrGcuJA-k4JC2MRClU-25" value="kidtutor" style="rounded=1;whiteSpace=wrap;html=1;strokeColor=#d79b00;fillColor=#FFE6CC;" vertex="1" parent="1">
          <mxGeometry x="860" y="529.5" width="120" height="60" as="geometry" />
        </mxCell>
        <mxCell id="zhOrGcuJA-k4JC2MRClU-26" value="saas" style="rounded=1;whiteSpace=wrap;html=1;strokeColor=#d79b00;fillColor=#FFE6CC;" vertex="1" parent="1">
          <mxGeometry x="860" y="439.5" width="120" height="60" as="geometry" />
        </mxCell>
        <mxCell id="zhOrGcuJA-k4JC2MRClU-27" value="zbcore" style="rounded=1;whiteSpace=wrap;html=1;strokeColor=#d79b00;fillColor=#FFE6CC;" vertex="1" parent="1">
          <mxGeometry x="860" y="619.5" width="120" height="60" as="geometry" />
        </mxCell>
        <mxCell id="zhOrGcuJA-k4JC2MRClU-31" style="edgeStyle=orthogonalEdgeStyle;rounded=0;orthogonalLoop=1;jettySize=auto;html=1;" edge="1" parent="1" source="zhOrGcuJA-k4JC2MRClU-28" target="zhOrGcuJA-k4JC2MRClU-29">
          <mxGeometry relative="1" as="geometry" />
        </mxCell>
        <mxCell id="zhOrGcuJA-k4JC2MRClU-69" style="rounded=0;orthogonalLoop=1;jettySize=auto;html=1;entryX=0.5;entryY=0;entryDx=0;entryDy=0;" edge="1" parent="1" source="zhOrGcuJA-k4JC2MRClU-28" target="zhOrGcuJA-k4JC2MRClU-53">
          <mxGeometry relative="1" as="geometry" />
        </mxCell>
        <mxCell id="zhOrGcuJA-k4JC2MRClU-83" value="用户行为" style="edgeLabel;html=1;align=center;verticalAlign=middle;resizable=0;points=[];" vertex="1" connectable="0" parent="zhOrGcuJA-k4JC2MRClU-69">
          <mxGeometry x="-0.7259" y="-1" relative="1" as="geometry">
            <mxPoint as="offset" />
          </mxGeometry>
        </mxCell>
        <mxCell id="zhOrGcuJA-k4JC2MRClU-28" value="yaya-task" style="rounded=1;whiteSpace=wrap;html=1;fillColor=#fa6800;strokeColor=#C73500;fontColor=#ffffff;" vertex="1" parent="1">
          <mxGeometry x="-230" y="470" width="120" height="60" as="geometry" />
        </mxCell>
        <mxCell id="zhOrGcuJA-k4JC2MRClU-68" style="edgeStyle=orthogonalEdgeStyle;rounded=0;orthogonalLoop=1;jettySize=auto;html=1;entryX=0.5;entryY=0;entryDx=0;entryDy=0;" edge="1" parent="1" source="zhOrGcuJA-k4JC2MRClU-29" target="zhOrGcuJA-k4JC2MRClU-67">
          <mxGeometry relative="1" as="geometry" />
        </mxCell>
        <mxCell id="zhOrGcuJA-k4JC2MRClU-71" value="添加积分" style="edgeLabel;html=1;align=center;verticalAlign=middle;resizable=0;points=[];" vertex="1" connectable="0" parent="zhOrGcuJA-k4JC2MRClU-68">
          <mxGeometry x="-0.1803" y="-2" relative="1" as="geometry">
            <mxPoint as="offset" />
          </mxGeometry>
        </mxCell>
        <mxCell id="zhOrGcuJA-k4JC2MRClU-29" value="kidintegralinner" style="rounded=1;whiteSpace=wrap;html=1;fillColor=#fa6800;strokeColor=#C73500;fontColor=#ffffff;opacity=50;" vertex="1" parent="1">
          <mxGeometry x="-230" y="600" width="120" height="60" as="geometry" />
        </mxCell>
        <mxCell id="zhOrGcuJA-k4JC2MRClU-32" value="* 获取课程列表和内容等相关信息" style="text;html=1;align=left;verticalAlign=middle;resizable=0;points=[];autosize=1;" vertex="1" parent="1">
          <mxGeometry x="593" y="389" width="190" height="20" as="geometry" />
        </mxCell>
        <mxCell id="zhOrGcuJA-k4JC2MRClU-33" value="*&amp;nbsp;finishModule，语文生成学习报告给学生推送消息" style="text;html=1;align=left;verticalAlign=middle;resizable=0;points=[];autosize=1;" vertex="1" parent="1">
          <mxGeometry x="981" y="369.5" width="280" height="20" as="geometry" />
        </mxCell>
        <mxCell id="zhOrGcuJA-k4JC2MRClU-35" value="*&amp;nbsp;鉴权的时候获取用户uid" style="text;html=1;align=left;verticalAlign=middle;resizable=0;points=[];autosize=1;" vertex="1" parent="1">
          <mxGeometry x="980" y="459.5" width="150" height="20" as="geometry" />
        </mxCell>
        <mxCell id="zhOrGcuJA-k4JC2MRClU-36" value="* 纠音查询班主任老师ID" style="text;html=1;align=left;verticalAlign=middle;resizable=0;points=[];autosize=1;" vertex="1" parent="1">
          <mxGeometry x="995" y="536.5" width="140" height="20" as="geometry" />
        </mxCell>
        <mxCell id="zhOrGcuJA-k4JC2MRClU-37" value="* 学前必读添加老师微信时查询老师信息" style="text;html=1;align=left;verticalAlign=middle;resizable=0;points=[];autosize=1;" vertex="1" parent="1">
          <mxGeometry x="995" y="562.5" width="230" height="20" as="geometry" />
        </mxCell>
        <mxCell id="zhOrGcuJA-k4JC2MRClU-38" value="" style="shape=curlyBracket;whiteSpace=wrap;html=1;rounded=1;fillColor=#b1ddf0;strokeColor=#10739e;" vertex="1" parent="1">
          <mxGeometry x="981" y="534" width="14" height="51" as="geometry" />
        </mxCell>
        <mxCell id="zhOrGcuJA-k4JC2MRClU-39" value="* 学前必读添加老师微信时判断课程是否有低幼班主任服务（2504）" style="text;html=1;align=left;verticalAlign=middle;resizable=0;points=[];autosize=1;" vertex="1" parent="1">
          <mxGeometry x="996" y="619.5" width="370" height="20" as="geometry" />
        </mxCell>
        <mxCell id="zhOrGcuJA-k4JC2MRClU-40" value="* 查询章节信息：开始时间、上课状态、是否生成回放、直播间类型" style="text;html=1;align=left;verticalAlign=middle;resizable=0;points=[];autosize=1;" vertex="1" parent="1">
          <mxGeometry x="996" y="639.5" width="370" height="20" as="geometry" />
        </mxCell>
        <mxCell id="zhOrGcuJA-k4JC2MRClU-41" value="* 查询章节信息：主讲老师ID、头像、姓名" style="text;html=1;align=left;verticalAlign=middle;resizable=0;points=[];autosize=1;" vertex="1" parent="1">
          <mxGeometry x="996" y="659.5" width="240" height="20" as="geometry" />
        </mxCell>
        <mxCell id="zhOrGcuJA-k4JC2MRClU-42" value="" style="shape=curlyBracket;whiteSpace=wrap;html=1;rounded=1;fillColor=#b1ddf0;strokeColor=#10739e;" vertex="1" parent="1">
          <mxGeometry x="981" y="624" width="14" height="51" as="geometry" />
        </mxCell>
        <mxCell id="zhOrGcuJA-k4JC2MRClU-48" value="yaya-report" style="rounded=1;whiteSpace=wrap;html=1;fillColor=#fa6800;strokeColor=#C73500;fontColor=#ffffff;" vertex="1" parent="1">
          <mxGeometry x="200" y="340" width="120" height="60" as="geometry" />
        </mxCell>
        <mxCell id="zhOrGcuJA-k4JC2MRClU-53" value="yaya_inclass" style="shape=datastore;whiteSpace=wrap;html=1;fillColor=none;opacity=50;align=center;" vertex="1" parent="1">
          <mxGeometry x="-60" y="721" width="100" height="60" as="geometry" />
        </mxCell>
        <mxCell id="zhOrGcuJA-k4JC2MRClU-73" style="rounded=0;orthogonalLoop=1;jettySize=auto;html=1;" edge="1" parent="1" source="zhOrGcuJA-k4JC2MRClU-56" target="zhOrGcuJA-k4JC2MRClU-72">
          <mxGeometry relative="1" as="geometry" />
        </mxCell>
        <mxCell id="zhOrGcuJA-k4JC2MRClU-85" value="计算结果落库" style="edgeLabel;html=1;align=center;verticalAlign=middle;resizable=0;points=[];" vertex="1" connectable="0" parent="zhOrGcuJA-k4JC2MRClU-73">
          <mxGeometry x="0.4469" relative="1" as="geometry">
            <mxPoint y="1" as="offset" />
          </mxGeometry>
        </mxCell>
        <mxCell id="zhOrGcuJA-k4JC2MRClU-75" style="rounded=0;orthogonalLoop=1;jettySize=auto;html=1;entryX=0.5;entryY=0;entryDx=0;entryDy=0;exitX=0.5;exitY=1;exitDx=0;exitDy=0;" edge="1" parent="1" source="zhOrGcuJA-k4JC2MRClU-56" target="zhOrGcuJA-k4JC2MRClU-74">
          <mxGeometry relative="1" as="geometry" />
        </mxCell>
        <mxCell id="zhOrGcuJA-k4JC2MRClU-84" value="缓存计算结果" style="edgeLabel;html=1;align=center;verticalAlign=middle;resizable=0;points=[];" vertex="1" connectable="0" parent="zhOrGcuJA-k4JC2MRClU-75">
          <mxGeometry x="0.6383" relative="1" as="geometry">
            <mxPoint y="1" as="offset" />
          </mxGeometry>
        </mxCell>
        <mxCell id="zhOrGcuJA-k4JC2MRClU-56" value="yaya-calc" style="rounded=1;whiteSpace=wrap;html=1;fillColor=#fa6800;strokeColor=#C73500;fontColor=#ffffff;opacity=50;" vertex="1" parent="1">
          <mxGeometry x="40" y="504.5" width="120" height="60" as="geometry" />
        </mxCell>
        <mxCell id="zhOrGcuJA-k4JC2MRClU-61" value="kidtask&lt;br&gt;（迁移到计算引擎）" style="rounded=1;whiteSpace=wrap;html=1;fillColor=#fa6800;strokeColor=#C73500;fontColor=#ffffff;dashed=1;" vertex="1" parent="1">
          <mxGeometry x="-400" y="340" width="120" height="60" as="geometry" />
        </mxCell>
        <mxCell id="zhOrGcuJA-k4JC2MRClU-67" value="currency&lt;br&gt;（售卖积分系统）" style="rounded=1;whiteSpace=wrap;html=1;strokeColor=#d79b00;fillColor=#FFE6CC;" vertex="1" parent="1">
          <mxGeometry x="-230" y="721" width="120" height="60" as="geometry" />
        </mxCell>
        <mxCell id="zhOrGcuJA-k4JC2MRClU-72" value="yaya_calc" style="shape=datastore;whiteSpace=wrap;html=1;fillColor=none;opacity=50;align=center;" vertex="1" parent="1">
          <mxGeometry x="60" y="720" width="100" height="60" as="geometry" />
        </mxCell>
        <mxCell id="zhOrGcuJA-k4JC2MRClU-74" value="stored" style="shape=datastore;whiteSpace=wrap;html=1;fillColor=none;opacity=50;align=center;" vertex="1" parent="1">
          <mxGeometry x="180" y="721" width="100" height="60" as="geometry" />
        </mxCell>
        <mxCell id="zhOrGcuJA-k4JC2MRClU-78" value="&lt;font style=&quot;font-size: 16px&quot; color=&quot;#ff3333&quot;&gt;内部系统依赖&lt;/font&gt;" style="rounded=0;whiteSpace=wrap;html=1;opacity=50;align=left;verticalAlign=top;fillColor=#CCFFCC;" vertex="1" parent="1">
          <mxGeometry x="441" y="340" width="389" height="340" as="geometry" />
        </mxCell>
        <mxCell id="zhOrGcuJA-k4JC2MRClU-79" value="&lt;font style=&quot;font-size: 16px&quot; color=&quot;#ff3333&quot;&gt;外部系统依赖&lt;/font&gt;" style="rounded=0;whiteSpace=wrap;html=1;opacity=50;align=left;verticalAlign=top;fillColor=#FFF2CC;" vertex="1" parent="1">
          <mxGeometry x="847" y="340" width="513" height="340" as="geometry" />
        </mxCell>
      </root>
    </mxGraphModel>
  </diagram>
</mxfile>
